<svg width="42" height="42" viewBox="0 0 42 42" fill="none" xmlns="http://www.w3.org/2000/svg">
<path d="M1 8C1 4.13401 4.13401 1 8 1H34C37.866 1 41 4.13401 41 8V34C41 37.866 37.866 41 34 41H8C4.13401 41 1 37.866 1 34V8Z" fill="#A1A9C3"/>
<path d="M1 8C1 4.13401 4.13401 1 8 1H34C37.866 1 41 4.13401 41 8V34C41 37.866 37.866 41 34 41H8C4.13401 41 1 37.866 1 34V8Z" stroke="#211E31" stroke-width="2"/>
<path opacity="0.4" d="M8.69366 18.3332C8.12033 18.3332 7.66699 17.8798 7.66699 17.3065V14.2265C7.66699 10.6132 10.6137 7.6665 14.227 7.6665H17.307C17.8803 7.6665 18.3337 8.11984 18.3337 8.69317C18.3337 9.2665 17.8803 9.71984 17.307 9.71984H14.227C11.7337 9.71984 9.72033 11.7465 9.72033 14.2265V17.3065C9.72033 17.8798 9.25366 18.3332 8.69366 18.3332Z" fill="#211E31"/>
<path opacity="0.4" d="M33.307 18.3332C32.747 18.3332 32.2803 17.8798 32.2803 17.3065V14.2265C32.2803 11.7332 30.2537 9.71984 27.7737 9.71984H24.6937C24.1203 9.71984 23.667 9.25317 23.667 8.69317C23.667 8.13317 24.1203 7.6665 24.6937 7.6665H27.7737C31.387 7.6665 34.3337 10.6132 34.3337 14.2265V17.3065C34.3337 17.8798 33.8803 18.3332 33.307 18.3332Z" fill="#211E31"/>
<path d="M27.7736 34.3334H25.9202C25.3602 34.3334 24.8936 33.8801 24.8936 33.3067C24.8936 32.7467 25.3469 32.2801 25.9202 32.2801H27.7736C30.2669 32.2801 32.2802 30.2534 32.2802 27.7734V25.9334C32.2802 25.3734 32.7336 24.9067 33.3069 24.9067C33.8669 24.9067 34.3336 25.3601 34.3336 25.9334V27.7734C34.3336 31.3867 31.3869 34.3334 27.7736 34.3334Z" fill="#211E31"/>
<path d="M17.307 34.3332H14.227C10.6137 34.3332 7.66699 31.3865 7.66699 27.7732V24.6932C7.66699 24.1198 8.12033 23.6665 8.69366 23.6665C9.26699 23.6665 9.72033 24.1198 9.72033 24.6932V27.7732C9.72033 30.2665 11.747 32.2798 14.227 32.2798H17.307C17.867 32.2798 18.3337 32.7332 18.3337 33.3065C18.3337 33.8798 17.8803 34.3332 17.307 34.3332Z" fill="#211E31"/>
<path d="M29.6137 19.9731H27.8004H14.2004H12.387C11.8137 19.9731 11.3604 20.4398 11.3604 20.9998C11.3604 21.5598 11.8137 22.0265 12.387 22.0265H14.2004H27.8004H29.6137C30.187 22.0265 30.6404 21.5598 30.6404 20.9998C30.6404 20.4398 30.187 19.9731 29.6137 19.9731Z" fill="#211E31"/>
<path d="M14.2002 23.5866V24.0266C14.2002 26.24 15.9869 28.0266 18.2002 28.0266H23.8002C26.0135 28.0266 27.8002 26.24 27.8002 24.0266V23.5866C27.8002 23.4266 27.6802 23.3066 27.5202 23.3066H14.4802C14.3202 23.3066 14.2002 23.4266 14.2002 23.5866Z" fill="#211E31"/>
<path opacity="0.4" d="M14.2002 18.4131V17.9731C14.2002 15.7598 15.9869 13.9731 18.2002 13.9731H23.8002C26.0135 13.9731 27.8002 15.7598 27.8002 17.9731V18.4131C27.8002 18.5731 27.6802 18.6931 27.5202 18.6931H14.4802C14.3202 18.6931 14.2002 18.5731 14.2002 18.4131Z" fill="#211E31"/>
</svg>
