<svg width="42" height="42" viewBox="0 0 42 42" fill="none" xmlns="http://www.w3.org/2000/svg">
<path d="M1 8C1 4.13401 4.13401 1 8 1H34C37.866 1 41 4.13401 41 8V34C41 37.866 37.866 41 34 41H8C4.13401 41 1 37.866 1 34V8Z" fill="#A1A9C3"/>
<path d="M1 8C1 4.13401 4.13401 1 8 1H34C37.866 1 41 4.13401 41 8V34C41 37.866 37.866 41 34 41H8C4.13401 41 1 37.866 1 34V8Z" stroke="#211E31" stroke-width="2"/>
<path opacity="0.4" d="M34.3198 11.0264C34.3465 11.3464 34.3198 11.6798 34.2398 12.0131L29.7465 30.0531C29.4265 31.3997 28.2265 32.3331 26.8398 32.3331H9.31982C7.30648 32.3331 5.87984 30.3598 6.4665 28.4264L12.0798 10.3864C12.4665 9.13306 13.6265 8.27979 14.9332 8.27979H31.3332C32.6132 8.27979 33.6532 9.03978 34.0932 10.1064C34.2265 10.3864 34.2931 10.7064 34.3198 11.0264Z" fill="#211E31"/>
<path d="M35.6532 29.16C35.7865 30.88 34.4265 32.3333 32.7065 32.3333H26.8398C28.2265 32.3333 29.4265 31.4 29.7465 30.0533L34.2398 12.0133C34.3198 11.68 34.3465 11.3467 34.3198 11.0267L34.3332 11L35.6532 29.16Z" fill="#211E31"/>
<path d="M17.9065 12.5065C17.8265 12.5065 17.7465 12.4932 17.6665 12.4798C17.1332 12.3465 16.7999 11.8132 16.9332 11.2665L18.3198 5.50652C18.4532 4.97318 18.9865 4.6532 19.5332 4.7732C20.0665 4.90653 20.3999 5.43983 20.2665 5.9865L18.8799 11.7465C18.7732 12.1998 18.3599 12.5065 17.9065 12.5065Z" fill="#211E31"/>
<path d="M26.8399 12.5197C26.7733 12.5197 26.6932 12.5197 26.6266 12.493C26.0932 12.373 25.7466 11.8397 25.8533 11.3064L27.1066 5.51974C27.2266 4.97307 27.7599 4.63971 28.2932 4.74638C28.8266 4.86638 29.1732 5.39973 29.0666 5.93307L27.8132 11.7197C27.7199 12.1997 27.3066 12.5197 26.8399 12.5197Z" fill="#211E31"/>
<path d="M25.9333 20H15.2666C14.7199 20 14.2666 19.5467 14.2666 19C14.2666 18.4533 14.7199 18 15.2666 18H25.9333C26.4799 18 26.9333 18.4533 26.9333 19C26.9333 19.5467 26.4799 20 25.9333 20Z" fill="#211E31"/>
<path d="M24.6003 25.3335H13.9336C13.3869 25.3335 12.9336 24.8802 12.9336 24.3335C12.9336 23.7868 13.3869 23.3335 13.9336 23.3335H24.6003C25.1469 23.3335 25.6003 23.7868 25.6003 24.3335C25.6003 24.8802 25.1469 25.3335 24.6003 25.3335Z" fill="#211E31"/>
</svg>
