<svg width="42" height="42" viewBox="0 0 42 42" fill="none" xmlns="http://www.w3.org/2000/svg">
<path d="M1 8C1 4.13401 4.13401 1 8 1H34C37.866 1 41 4.13401 41 8V34C41 37.866 37.866 41 34 41H8C4.13401 41 1 37.866 1 34V8Z" fill="#A1A9C3"/>
<path d="M1 8C1 4.13401 4.13401 1 8 1H34C37.866 1 41 4.13401 41 8V34C41 37.866 37.866 41 34 41H8C4.13401 41 1 37.866 1 34V8Z" stroke="#211E31" stroke-width="2"/>
<path d="M32.9602 6.3335H29.0402C27.3468 6.3335 26.3335 7.34683 26.3335 9.04016V12.9602C26.3335 14.6535 27.3468 15.6668 29.0402 15.6668H32.9602C34.6535 15.6668 35.6668 14.6535 35.6668 12.9602V9.04016C35.6668 7.34683 34.6535 6.3335 32.9602 6.3335ZM33.8135 11.2402C33.3202 12.8135 31.6002 13.6668 31.0002 13.6668C30.4002 13.6668 28.6935 12.8402 28.1868 11.2402C28.1068 11.0002 28.0668 10.7335 28.0668 10.4802C28.0668 9.6135 28.5068 8.72016 29.4268 8.42683C29.9735 8.2535 30.5602 8.34683 30.9735 8.6935C31.4002 8.36016 31.9868 8.2535 32.5468 8.42683C33.7735 8.8135 34.1602 10.1868 33.8135 11.2402Z" fill="#211E31"/>
<path opacity="0.4" d="M32.9598 15.6665H29.0398C27.3465 15.6665 26.3332 14.6532 26.3332 12.9598V9.03984C26.3332 8.5065 26.4398 8.05317 26.6265 7.6665H14.3332C10.6532 7.6665 7.6665 10.6398 7.6665 14.3065V22.2798V23.6132C7.6665 27.2798 10.6532 30.2532 14.3332 30.2532H16.3332C16.6932 30.2532 17.1732 30.4932 17.3998 30.7865L19.3998 33.4398C20.2798 34.6132 21.7198 34.6132 22.5998 33.4398L24.5998 30.7865C24.8532 30.4532 25.2532 30.2532 25.6665 30.2532H27.6665C31.3465 30.2532 34.3332 27.2798 34.3332 23.6132V15.3598C33.9465 15.5598 33.4932 15.6665 32.9598 15.6665Z" fill="#211E31"/>
<path d="M20.9998 21.0002C20.2532 21.0002 19.6665 20.4002 19.6665 19.6668C19.6665 18.9335 20.2665 18.3335 20.9998 18.3335C21.7332 18.3335 22.3332 18.9335 22.3332 19.6668C22.3332 20.4002 21.7465 21.0002 20.9998 21.0002Z" fill="#211E31"/>
<path d="M26.3333 21.0002C25.5867 21.0002 25 20.4002 25 19.6668C25 18.9335 25.6 18.3335 26.3333 18.3335C27.0667 18.3335 27.6667 18.9335 27.6667 19.6668C27.6667 20.4002 27.08 21.0002 26.3333 21.0002Z" fill="#211E31"/>
<path d="M15.6668 21.0002C14.9202 21.0002 14.3335 20.4002 14.3335 19.6668C14.3335 18.9335 14.9335 18.3335 15.6668 18.3335C16.4002 18.3335 17.0002 18.9335 17.0002 19.6668C17.0002 20.4002 16.4135 21.0002 15.6668 21.0002Z" fill="#211E31"/>
</svg>
