<svg width="42" height="42" viewBox="0 0 42 42" fill="none" xmlns="http://www.w3.org/2000/svg">
<path d="M1 8C1 4.13401 4.13401 1 8 1H34C37.866 1 41 4.13401 41 8V34C41 37.866 37.866 41 34 41H8C4.13401 41 1 37.866 1 34V8Z" fill="#A1A9C3"/>
<path d="M1 8C1 4.13401 4.13401 1 8 1H34C37.866 1 41 4.13401 41 8V34C41 37.866 37.866 41 34 41H8C4.13401 41 1 37.866 1 34V8Z" stroke="#211E31" stroke-width="2"/>
<path d="M31.4167 17.8748V15.7915H29.3333V17.8748H27.25V19.9582H29.3333V22.0415H31.4167V19.9582H33.5V17.8748H31.4167Z" fill="#211E31"/>
<path d="M16.8337 20.9998C19.1357 20.9998 21.0003 19.1353 21.0003 16.8332C21.0003 14.5311 19.1357 12.6665 16.8337 12.6665C14.5316 12.6665 12.667 14.5311 12.667 16.8332C12.667 19.1353 14.5316 20.9998 16.8337 20.9998Z" fill="#211E31"/>
<path d="M16.8333 22.0415C14.0521 22.0415 8.5 23.4373 8.5 26.2082V29.3332H25.1667V26.2082C25.1667 23.4373 19.6146 22.0415 16.8333 22.0415Z" fill="#211E31"/>
<path d="M21.5312 12.7188C22.4896 13.8229 23.0833 15.2604 23.0833 16.8333C23.0833 18.4062 22.4896 19.8438 21.5312 20.9479C23.5729 20.6875 25.1667 18.9583 25.1667 16.8333C25.1667 14.7083 23.5729 12.9792 21.5312 12.7188Z" fill="#211E31"/>
<path d="M25.7188 22.9062C26.6458 23.7708 27.25 24.8542 27.25 26.2083V29.3333H29.3333V26.2083C29.3333 24.6979 27.6771 23.5938 25.7188 22.9062Z" fill="#211E31"/>
</svg>
