<svg width="25" height="24" viewBox="0 0 25 24" fill="none" xmlns="http://www.w3.org/2000/svg">
<path d="M10.5668 2.3999H5.52685C4.83133 2.3999 4.26685 2.92716 4.26685 3.57683V21.623C4.26685 22.2726 4.83133 22.7999 5.52685 22.7999H19.8068C20.5024 22.7999 21.0668 22.2726 21.0668 21.623V12.2076M10.5668 2.3999H10.9868C13.6602 2.3999 16.2241 3.39188 18.1145 5.1576C20.0048 6.92333 21.0668 9.31817 21.0668 11.8153V12.2076M10.5668 2.3999C11.5694 2.3999 12.5308 2.77189 13.2397 3.43404C13.9486 4.09619 14.3468 4.99425 14.3468 5.93067V7.4999C14.3468 8.14956 14.9113 8.67682 15.6068 8.67682H17.2868C18.2894 8.67682 19.2508 9.04882 19.9597 9.71096C20.6686 10.3731 21.0668 11.2712 21.0668 12.2076M9.30685 15.7384L11.8268 18.0922L16.0268 12.5999" stroke="#6C9CFF" stroke-width="1.5" stroke-linecap="round" stroke-linejoin="round"/>
</svg>
