<svg width="22" height="17" viewBox="0 0 22 17" fill="none" xmlns="http://www.w3.org/2000/svg">
<g clip-path="url(#clip0_1199_2644)">
<rect y="0.5" width="22" height="10" fill="#A2001D"/>
<rect y="10.5" width="22" height="6" fill="#6DA544"/>
<path d="M4.5433 7.92048L3.34766 6.34288L4.5433 4.79004L5.73895 6.34288L4.5433 7.92048Z" fill="white"/>
<path d="M2.1517 7.92048L0.956055 6.34288L2.1517 4.79004L3.34735 6.34288L2.1517 7.92048Z" fill="white"/>
<path d="M4.5433 3.92048L3.34766 2.34288L4.5433 0.790039L5.73895 2.34288L4.5433 3.92048Z" fill="white"/>
<path d="M2.1517 3.92048L0.956055 2.34288L2.1517 0.790039L3.34735 2.34288L2.1517 3.92048Z" fill="white"/>
<path d="M4.5433 12.2105L3.34766 10.6329L4.5433 9.08008L5.73895 10.6329L4.5433 12.2105Z" fill="white"/>
<path d="M2.1517 12.2105L0.956055 10.6329L2.1517 9.08008L3.34735 10.6329L2.1517 12.2105Z" fill="white"/>
<path d="M4.5433 16.2105L3.34766 14.6329L4.5433 13.0801L5.73895 14.6329L4.5433 16.2105Z" fill="white"/>
<path d="M2.1517 16.2105L0.956055 14.6329L2.1517 13.0801L3.34735 14.6329L2.1517 16.2105Z" fill="white"/>
</g>
<defs>
<clipPath id="clip0_1199_2644">
<rect y="0.5" width="22" height="16" rx="2" fill="white"/>
</clipPath>
</defs>
</svg>
