<svg width="24" height="24" viewBox="0 0 24 24" fill="none" xmlns="http://www.w3.org/2000/svg">
<path d="M20.2549 6.17782L13.7324 12.7009C13.2718 13.1608 12.6476 13.4192 11.9967 13.4192C11.3459 13.4192 10.7216 13.1608 10.2611 12.7009L4.20655 6.64745C3.69164 6.13255 4.056 5.25 4.78582 5.25H18.5455C19.9004 5.25 21 6.34964 21 7.70455V17.5227C21 18.1737 20.7414 18.798 20.2811 19.2584C19.8208 19.7187 19.1964 19.9773 18.5455 19.9773H5.45455C4.80356 19.9773 4.17924 19.7187 3.71892 19.2584C3.2586 18.798 3 18.1737 3 17.5227V9.34091" stroke="#211E31" stroke-width="1.5"/>
</svg>
