<svg width="25" height="24" viewBox="0 0 25 24" fill="none" xmlns="http://www.w3.org/2000/svg">
<g clip-path="url(#clip0_1943_6418)">
<path d="M12.3333 12H3.33325V13.5H12.3333V12Z" fill="#6C9CFF"/>
<path d="M9.33325 8.25H1.83325V9.75H9.33325V8.25Z" fill="#6C9CFF"/>
<path d="M22.7725 12.4548L20.5225 7.2048C20.4649 7.06979 20.3688 6.95469 20.2463 6.87383C20.1237 6.79297 19.9801 6.74991 19.8333 6.75H17.5833V5.25C17.5833 5.05109 17.5043 4.86032 17.3637 4.71967C17.223 4.57902 17.0322 4.5 16.8333 4.5H4.83333V6H16.0833V15.4172C15.7416 15.6156 15.4426 15.8797 15.2034 16.1943C14.9643 16.5089 14.7897 16.8677 14.6899 17.25H9.97676C9.79421 16.543 9.36009 15.9269 8.75575 15.517C8.15142 15.1072 7.41837 14.9319 6.69401 15.0239C5.96965 15.1159 5.30371 15.4689 4.82102 16.0168C4.33833 16.5647 4.07202 17.2698 4.07202 18C4.07202 18.7302 4.33833 19.4353 4.82102 19.9832C5.30371 20.5311 5.96965 20.8841 6.69401 20.9761C7.41837 21.0681 8.15142 20.8928 8.75575 20.483C9.36009 20.0731 9.79421 19.457 9.97676 18.75H14.6899C14.8534 19.3933 15.2267 19.9638 15.7507 20.3713C16.2747 20.7787 16.9196 20.9999 17.5833 20.9999C18.2471 20.9999 18.892 20.7787 19.416 20.3713C19.94 19.9638 20.3132 19.3933 20.4768 18.75H22.0833C22.2822 18.75 22.473 18.671 22.6137 18.5303C22.7543 18.3897 22.8333 18.1989 22.8333 18V12.75C22.8333 12.6485 22.8126 12.548 22.7725 12.4548ZM7.08333 19.5C6.78666 19.5 6.49665 19.412 6.24998 19.2472C6.00331 19.0824 5.81105 18.8481 5.69751 18.574C5.58398 18.2999 5.55428 17.9983 5.61216 17.7074C5.67003 17.4164 5.81289 17.1491 6.02267 16.9393C6.23245 16.7296 6.49973 16.5867 6.7907 16.5288C7.08167 16.4709 7.38327 16.5007 7.65736 16.6142C7.93145 16.7277 8.16572 16.92 8.33054 17.1666C8.49536 17.4133 8.58333 17.7033 8.58333 18C8.58288 18.3977 8.4247 18.779 8.14349 19.0602C7.86228 19.3414 7.48102 19.4995 7.08333 19.5ZM17.5833 8.25H19.3389L20.9463 12H17.5833V8.25ZM17.5833 19.5C17.2867 19.5 16.9967 19.412 16.75 19.2472C16.5033 19.0824 16.311 18.8481 16.1975 18.574C16.084 18.2999 16.0543 17.9983 16.1122 17.7074C16.17 17.4164 16.3129 17.1491 16.5227 16.9393C16.7325 16.7296 16.9997 16.5867 17.2907 16.5288C17.5817 16.4709 17.8833 16.5007 18.1574 16.6142C18.4314 16.7277 18.6657 16.92 18.8305 17.1666C18.9954 17.4133 19.0833 17.7033 19.0833 18C19.0829 18.3977 18.9247 18.779 18.6435 19.0602C18.3623 19.3414 17.981 19.4995 17.5833 19.5ZM21.3333 17.25H20.4768C20.3115 16.6076 19.9378 16.0382 19.4142 15.631C18.8906 15.2239 18.2466 15.0019 17.5833 15V13.5H21.3333V17.25Z" fill="#6C9CFF"/>
</g>
<defs>
<clipPath id="clip0_1943_6418">
<rect width="24" height="24" fill="white" transform="translate(0.333252)"/>
</clipPath>
</defs>
</svg>
