<svg width="24" height="24" viewBox="0 0 24 24" fill="none" xmlns="http://www.w3.org/2000/svg">
<path d="M6.70933 12.7172H9.12089V22.6452C9.12089 22.8412 9.27971 23 9.47572 23H13.5646C13.7606 23 13.9194 22.8412 13.9194 22.6452V12.764H16.6917C16.872 12.764 17.0236 12.6287 17.0442 12.4497L17.4653 8.79467C17.4768 8.69411 17.445 8.59341 17.3777 8.51797C17.3103 8.44246 17.214 8.39924 17.1128 8.39924H13.9196V6.10812C13.9196 5.41746 14.2915 5.06723 15.025 5.06723C15.1295 5.06723 17.1128 5.06723 17.1128 5.06723C17.3089 5.06723 17.4677 4.90834 17.4677 4.71239V1.35746C17.4677 1.16145 17.3089 1.00263 17.1128 1.00263H14.2355C14.2152 1.00163 14.1701 1 14.1037 1C13.6044 1 11.869 1.09801 10.4982 2.3591C8.97938 3.7566 9.1905 5.42988 9.24096 5.71999V8.39917H6.70933C6.51332 8.39917 6.35449 8.55799 6.35449 8.75401V12.3623C6.35449 12.5583 6.51332 12.7172 6.70933 12.7172Z" fill="#211E31"/>
</svg>
