<svg width="24" height="24" viewBox="0 0 24 24" fill="none" xmlns="http://www.w3.org/2000/svg">
<path d="M2.0498 1.0498H4.0498L6.7098 13.4698C6.80738 13.9247 7.06048 14.3313 7.42552 14.6197C7.79056 14.908 8.24471 15.0602 8.7098 15.0498H18.4898C18.945 15.0491 19.3863 14.8931 19.7408 14.6076C20.0954 14.3222 20.3419 13.9243 20.4398 13.4798L22.0898 6.0498H5.1198" stroke="#6C9CFF" stroke-width="1.25" stroke-linecap="round" stroke-linejoin="round"/>
<path d="M18.25 21.5C17.5566 21.5 17 20.9336 17 20.25C17 19.5566 17.5566 19 18.25 19C18.9434 19 19.5 19.5566 19.5 20.25C19.5 20.9336 18.9434 21.5 18.25 21.5Z" fill="#6C9CFF"/>
<path d="M9.25 21.5C8.55664 21.5 8 20.9336 8 20.25C8 19.5566 8.55664 19 9.25 19C9.94336 19 10.5 19.5566 10.5 20.25C10.5 20.9336 9.94336 21.5 9.25 21.5Z" fill="#6C9CFF"/>
<path d="M20 12H7" stroke="#6C9CFF" stroke-width="1.25" stroke-linecap="round"/>
</svg>
