<svg width="24" height="25" viewBox="0 0 24 25" fill="none" xmlns="http://www.w3.org/2000/svg">
<path d="M16.794 4.00002C18.118 4.00002 19.362 4.51602 20.298 5.45102C21.2262 6.38093 21.7475 7.64113 21.7475 8.95502C21.7475 10.2689 21.2262 11.5291 20.298 12.459L12 20.758L3.70096 12.459C2.77307 11.5291 2.25195 10.2692 2.25195 8.95552C2.25195 7.64188 2.77307 6.38189 3.70096 5.45202C4.15999 4.99032 4.70604 4.62425 5.30751 4.37501C5.90897 4.12578 6.5539 3.99832 7.20496 4.00002C8.52896 4.00002 9.77296 4.51602 10.709 5.45102L11.469 6.21102L12 6.74202L12.53 6.21102L13.29 5.45102C13.7492 4.98963 14.2953 4.62384 14.8967 4.37478C15.4982 4.12573 16.143 3.99835 16.794 4.00002Z" stroke="#211E31" stroke-width="1.5"/>
</svg>
