<svg width="24" height="24" viewBox="0 0 24 24" fill="none" xmlns="http://www.w3.org/2000/svg">
<path d="M5.92234 8.30476H1.36177V23H5.92234V8.30476Z" fill="#211E31"/>
<path d="M6.28436 3.64935C6.28436 2.18669 5.09979 1 3.64218 1C2.18115 1 1 2.18669 1 3.64935C1 5.11055 2.18115 6.29724 3.64218 6.29724C5.09979 6.29724 6.28436 5.11055 6.28436 3.64935Z" fill="#211E31"/>
<path d="M13.1551 8.30469H8.782V22.9999H13.3391V15.7312C13.3391 13.815 13.7012 11.9571 16.0737 11.9571C18.4133 11.9571 18.4429 14.149 18.4429 15.8536V22.9999H23V14.9402C23 10.9834 22.1479 7.9408 17.5311 7.9408C15.3137 7.9408 13.8261 9.15835 13.2174 10.3142H13.1551V8.30469Z" fill="#211E31"/>
</svg>
