<svg width="75" height="78" viewBox="0 0 75 78" fill="none" xmlns="http://www.w3.org/2000/svg">
<path fill-rule="evenodd" clip-rule="evenodd" d="M49.8945 35.5712L58.075 22.3097L59.6564 26.109L72.8794 57.8792H62.2028C59.6783 57.8792 57.4025 56.3581 56.4371 54.0254L50.4551 39.5712L49.8945 35.5712Z" fill="#473CFA"/>
<path fill-rule="evenodd" clip-rule="evenodd" d="M33.9082 47.098L36.9997 37.0436L42.1417 24.1428L52.1361 33.8571L50.4543 39.5714L45.2551 52.1428L33.9082 47.098Z" fill="#6C9CFF"/>
<path d="M19.787 20.1658C17.9869 20.1658 16.3613 21.2628 15.6583 22.9518L13.7354 27.572L17.3785 23.572L23.5452 39.5944L29.6594 54.3592L38.1209 42.4286L36.9997 37.0443L31.4087 23.0166C30.7217 21.2931 29.0787 20.1658 27.2536 20.1658H19.787Z" fill="#A1F2FF"/>
<path fill-rule="evenodd" clip-rule="evenodd" d="M17.3787 23.5715L23.5453 39.5939L17.5642 54.0283C16.5982 56.3596 14.3231 57.8796 11.7995 57.8796H1.12109L13.7355 27.5715L17.3787 23.5715Z" fill="#A1F2FF"/>
<path d="M50.4551 39.5716L45.9248 28.9885C44.9902 26.7566 42.0816 26.3006 40.5322 28.1431L42.6066 23.0002C43.1672 21.2859 44.849 20.1431 46.8532 20.1431H54.9432C56.3016 20.1431 57.5293 20.9682 58.0644 22.2409L60.5011 28.1431C58.9478 26.2959 56.078 26.7455 55.1304 28.9784L50.4551 39.5716Z" fill="url(#paint0_linear_1014_4936)"/>
<path d="M40.426 57.1147C40.3709 57.1249 40.3046 57.1302 40.226 57.1302H33.7869C32.7605 57.1302 31.7908 56.7735 31.0166 56.1538C30.4312 55.6888 29.9565 55.0739 29.6517 54.3492L29.6585 54.3448L28.0303 50.4288C29.8296 51.3458 32.0122 50.4754 32.7233 48.5573L36.9971 37.0293L37 37.0112L41.2767 48.547C41.9878 50.4651 44.1703 51.3355 45.9697 50.4184L44.3424 54.3323C43.6675 55.9553 42.1409 57.0321 40.426 57.1147Z" fill="url(#paint1_linear_1014_4936)"/>
<path d="M33.4469 28.1314L36.995 37.0335L36.9965 37.0295L36.9994 37.0114L41.2761 48.5471C41.9872 50.4653 44.1697 51.3356 45.9691 50.4186L44.3418 54.3324C43.6669 55.9554 42.1403 57.0322 40.4254 57.1149C40.3703 57.1251 40.304 57.1303 40.2254 57.1303H33.7863C32.7599 57.1303 31.7902 56.7736 31.0159 56.1539C30.4306 55.6889 29.9558 55.0741 29.6511 54.3494L29.6541 54.3474L28.474 51.4975L28.0297 50.4289L28.0319 50.43L23.5448 39.5945L23.4809 39.4283L18.761 28.8334C17.8006 26.6776 14.9509 26.3046 13.4873 28.1431L15.536 22.9959C16.2225 21.2713 17.866 20.1431 19.6919 20.1431H27.2517C29.0775 20.1431 30.7211 21.2713 31.4075 22.9959L33.4562 28.1431C33.4531 28.1392 33.45 28.1353 33.4469 28.1314Z" fill="#65E6F9"/>
<path d="M45.9248 28.9885L50.4551 39.5716L55.7188 52.2903C57.1207 55.6776 60.3766 57.8796 63.9833 57.8796H72.8793L60.3007 27.6577L58.0644 22.2409C57.5293 20.9682 56.3016 20.1431 54.9432 20.1431H46.8532C44.849 20.1431 43.1672 21.2859 42.6066 23.0002L40.5322 28.1431C42.0816 26.3006 44.9902 26.7566 45.9248 28.9885Z" fill="url(#paint2_linear_1014_4936)" fill-opacity="0.8"/>
<path d="M50.4551 39.5716L45.9248 28.9885C44.9902 26.7566 42.0816 26.3006 40.5322 28.1431L42.6066 23.0002C43.1672 21.2859 44.849 20.1431 46.8532 20.1431H54.9432C56.3016 20.1431 57.5293 20.9682 58.0644 22.2409L60.5011 28.1431C58.9478 26.2959 56.078 26.7455 55.1304 28.9784L50.4551 39.5716Z" fill="url(#paint3_linear_1014_4936)"/>
<path d="M13.4873 28.1431C13.4873 28.1431 14.513 27.2247 15.1267 27.0641C16.5183 26.6998 18.0946 27.3372 18.761 28.8332L23.4809 39.4282L23.5449 39.5944L28.032 50.4299L28.0297 50.4288L28.474 51.4974L29.6542 54.3473L29.6512 54.3492C29.9559 55.0739 30.4306 55.6888 31.016 56.1538C31.7902 56.7735 32.7599 57.1302 33.7863 57.1302H40.2254C40.304 57.1302 40.3704 57.1249 40.4254 57.1147C42.1404 57.0321 43.667 55.9553 44.3418 54.3323L45.9691 50.4285C45.9691 50.4285 44.8478 50.4285 44.1287 51.9161L43.3095 53.8863C42.8034 55.1035 41.6584 55.9112 40.3724 55.9732L40.2254 55.9902C40.2416 55.9872 40.249 55.9867 40.249 55.9867C40.249 55.9867 40.2468 55.9869 40.2434 55.987C40.2395 55.9872 40.2336 55.9873 40.2254 55.9873H33.7863C33.0166 55.9873 32.2896 55.7201 31.7084 55.2549L31.7052 55.2524C31.2686 54.9055 30.9143 54.4479 30.6855 53.9081L30.6871 53.9028L29.507 51.0529L29.0636 49.9867L29.0649 49.9855L24.5834 39.1634L24.5247 39.0108L24.5018 38.9557L19.7819 28.3607C18.9983 26.6018 17.289 25.7164 15.6177 25.8306C13.9464 25.9449 13.4873 28.1431 13.4873 28.1431Z" fill="#60F9FE"/>
<path d="M40.5322 28.1428C40.5806 28.0853 40.6304 28.03 40.6813 27.9769C41.1094 27.5309 41.6239 27.2421 42.1647 27.101C42.2034 27.0909 42.2423 27.0816 42.2812 27.073C43.7067 26.7588 45.2822 27.454 45.9248 28.9884L50.455 39.5715L55.7188 52.2902C57.1206 55.6774 60.3765 57.8794 63.9832 57.8794H72.8792C72.8792 57.8794 72.3187 56.7144 71.1856 56.7365C70.0526 56.7587 63.9832 56.7365 63.9832 56.7365C60.8273 56.7365 57.9784 54.8098 56.7518 51.846L51.4881 39.1272L46.9541 28.5353C46.1767 26.6841 44.3944 25.7466 42.6625 25.867C40.9305 25.9873 40.5322 28.1428 40.5322 28.1428Z" fill="#473CFA"/>
<path d="M23.5447 39.5716L18.761 28.8334C17.8006 26.6776 14.9509 26.3046 13.4873 28.1431L15.536 22.9959C16.2225 21.2713 17.866 20.1431 19.6919 20.1431H27.2517C29.0775 20.1431 30.7211 21.2713 31.4075 22.9959L33.4562 28.1431C31.9989 26.3124 29.1589 26.696 28.2195 28.8503L23.5447 39.5716Z" fill="url(#paint4_linear_1014_4936)"/>
<defs>
<linearGradient id="paint0_linear_1014_4936" x1="52.6975" y1="18.4288" x2="52.6975" y2="45.8574" gradientUnits="userSpaceOnUse">
<stop stop-color="#6C9CFF"/>
<stop offset="1" stop-color="#473CFA"/>
</linearGradient>
<linearGradient id="paint1_linear_1014_4936" x1="38.9591" y1="35.236" x2="38.9591" y2="63.6393" gradientUnits="userSpaceOnUse">
<stop stop-color="#6C9CFF"/>
<stop offset="1" stop-color="#473CFA"/>
</linearGradient>
<linearGradient id="paint2_linear_1014_4936" x1="52.6975" y1="18.4288" x2="52.6975" y2="45.8574" gradientUnits="userSpaceOnUse">
<stop stop-color="#473CFA"/>
<stop offset="1" stop-color="#473CFA"/>
</linearGradient>
<linearGradient id="paint3_linear_1014_4936" x1="52.6975" y1="18.4288" x2="52.6975" y2="45.8574" gradientUnits="userSpaceOnUse">
<stop stop-color="#4D4CFB"/>
<stop offset="1" stop-color="#4D4AFB"/>
</linearGradient>
<linearGradient id="paint4_linear_1014_4936" x1="23.5448" y1="19.5716" x2="23.5448" y2="43.0002" gradientUnits="userSpaceOnUse">
<stop stop-color="#A1F2FF"/>
<stop offset="1" stop-color="#65E6F9"/>
</linearGradient>
</defs>
</svg>
