<svg width="179" height="28" viewBox="0 0 179 28" fill="none" xmlns="http://www.w3.org/2000/svg">
<g clip-path="url(#clip0_855_4511)">
<path fill-rule="evenodd" clip-rule="evenodd" d="M34.7969 11.595L40.4878 2.54402L41.588 5.13708L50.7869 26.8202H44.5981C42.089 26.8202 39.824 25.3174 38.8487 23.0056L35.1869 14.325L34.7969 11.595Z" fill="#473CFA"/>
<path fill-rule="evenodd" clip-rule="evenodd" d="M23.6758 19.4618L25.8265 12.5997L29.4036 3.79492L36.3565 10.4249L35.1865 14.3249L31.5695 22.9049L23.6758 19.4618Z" fill="#6C9CFF"/>
<path d="M13.8506 1.08057C12.5984 1.08057 11.4674 1.82926 10.9784 2.98205L9.64062 6.13533L12.1751 3.40533L16.4651 14.3406L20.7186 24.4176L26.6051 16.275L25.825 12.6001L21.9355 3.02624C21.4576 1.84995 20.3146 1.08057 19.045 1.08057H13.8506Z" fill="#A1F2FF"/>
<path fill-rule="evenodd" clip-rule="evenodd" d="M12.1752 3.40527L16.4652 14.3405L12.8042 23.0084C11.8284 25.3189 9.56402 26.8205 7.05592 26.8205H0.865234L9.64079 6.13527L12.1752 3.40527Z" fill="#A1F2FF"/>
<path d="M35.1863 14.3249L32.0347 7.10194C31.3845 5.57866 29.3611 5.26744 28.2832 6.52494L29.7263 3.01494C30.1163 1.84494 31.2863 1.06494 32.6805 1.06494H38.3086C39.2536 1.06494 40.1076 1.62812 40.4799 2.49671L42.1751 6.52494C41.0945 5.26424 39.098 5.57108 38.4388 7.09506L35.1863 14.3249Z" fill="url(#paint0_linear_855_4511)"/>
<path d="M28.2093 26.2983C28.171 26.3052 28.1249 26.3088 28.0702 26.3088H23.5907C22.8766 26.3088 22.202 26.0654 21.6634 25.6424C21.2562 25.3251 20.9259 24.9054 20.714 24.4108L20.7187 24.4078L19.5859 21.7351C20.8377 22.361 22.356 21.767 22.8507 20.4578L25.8239 12.59L25.8259 12.5776L28.8011 20.4508C29.2958 21.7599 30.8142 22.3539 32.0659 21.7281L30.9339 24.3993C30.4644 25.507 29.4024 26.2419 28.2093 26.2983Z" fill="url(#paint1_linear_855_4511)"/>
<path d="M23.3541 6.51696L25.8225 12.5927L25.8235 12.5899L25.8255 12.5776L28.8007 20.4507C29.2954 21.7598 30.8138 22.3539 32.0655 21.728L30.9334 24.3992C30.464 25.5069 29.402 26.2418 28.2089 26.2982C28.1706 26.3052 28.1245 26.3087 28.0698 26.3087H23.5903C22.8762 26.3087 22.2016 26.0653 21.663 25.6423C21.2558 25.325 20.9255 24.9054 20.7135 24.4107L20.7156 24.4094L19.8946 22.4643L19.5855 21.735L19.5871 21.7358L16.4655 14.3406L16.421 14.2271L13.1375 6.99606C12.4694 5.52476 10.4869 5.27017 9.46875 6.52494L10.894 3.01197C11.3715 1.83496 12.5149 1.06494 13.7851 1.06494H19.0443C20.3145 1.06494 21.4579 1.83496 21.9354 3.01197L23.3606 6.52494C23.3585 6.52227 23.3563 6.51961 23.3541 6.51696Z" fill="#65E6F9"/>
<path d="M32.0347 7.10194L35.1863 14.3249L38.8481 23.0055C39.8234 25.3173 42.0884 26.8201 44.5975 26.8201H50.7863L42.0357 6.19369L40.4799 2.49671C40.1076 1.62812 39.2536 1.06494 38.3086 1.06494H32.6805C31.2863 1.06494 30.1163 1.84494 29.7263 3.01494L28.2832 6.52494C29.3611 5.26744 31.3845 5.57866 32.0347 7.10194Z" fill="url(#paint2_linear_855_4511)" fill-opacity="0.8"/>
<path d="M35.1863 14.3249L32.0347 7.10194C31.3845 5.57866 29.3611 5.26744 28.2832 6.52494L29.7263 3.01494C30.1163 1.84494 31.2863 1.06494 32.6805 1.06494H38.3086C39.2536 1.06494 40.1076 1.62812 40.4799 2.49671L42.1751 6.52494C41.0945 5.26424 39.098 5.57108 38.4388 7.09506L35.1863 14.3249Z" fill="url(#paint3_linear_855_4511)"/>
<path d="M9.46875 6.52539C9.46875 6.52539 10.1823 5.89862 10.6093 5.78896C11.5773 5.54032 12.6739 5.9754 13.1375 6.9964L16.4211 14.2275L16.4656 14.3409L19.5871 21.7362L19.5855 21.7354L19.8946 22.4647L20.7156 24.4097L20.7136 24.4111C20.9255 24.9057 21.2558 25.3253 21.663 25.6427C22.2017 26.0657 22.8762 26.3091 23.5903 26.3091H28.0698C28.1245 26.3091 28.1706 26.3055 28.2089 26.2986C29.402 26.2421 30.464 25.5072 30.9335 24.3995L32.0655 21.7352C32.0655 21.7352 31.2855 21.7352 30.7852 22.7504L30.2153 24.0952C29.8632 24.9259 29.0667 25.4771 28.1721 25.5194L28.0698 25.5311C28.0811 25.529 28.0862 25.5287 28.0862 25.5287C28.0862 25.5287 28.0847 25.5288 28.0823 25.5289C28.0796 25.529 28.0755 25.5291 28.0698 25.5291H23.5903C23.0548 25.5291 22.5491 25.3467 22.1447 25.0292L22.1425 25.0275C21.8388 24.7907 21.5923 24.4784 21.4331 24.11L21.4343 24.1064L20.6132 22.1614L20.3048 21.4337L20.3057 21.4328L17.188 14.0468L17.1472 13.9426L17.1313 13.905L13.8478 6.67391C13.3026 5.47344 12.1135 4.86915 10.9508 4.94713C9.78812 5.02512 9.46875 6.52539 9.46875 6.52539Z" fill="#60F9FE"/>
<path d="M28.2832 6.52514C28.3169 6.48586 28.3515 6.44811 28.3869 6.41188C28.6847 6.10748 29.0427 5.91037 29.4189 5.81411C29.4458 5.80722 29.4728 5.80084 29.4999 5.79498C30.4916 5.58056 31.5877 6.05498 32.0347 7.10223L35.1862 14.3252L38.8481 23.0057C39.8233 25.3175 42.0884 26.8203 44.5975 26.8203H50.7862C50.7862 26.8203 50.3963 26.0252 49.608 26.0403C48.8198 26.0555 44.5975 26.0403 44.5975 26.0403C42.402 26.0403 40.4201 24.7254 39.5668 22.7025L35.905 14.022L32.7507 6.79298C32.2099 5.52957 30.9701 4.88974 29.7652 4.97187C28.5602 5.054 28.2832 6.52514 28.2832 6.52514Z" fill="#473CFA"/>
<path d="M16.4654 14.3249L13.1375 6.99606C12.4694 5.52476 10.4869 5.27017 9.46875 6.52494L10.894 3.01197C11.3715 1.83496 12.5149 1.06494 13.7851 1.06494H19.0443C20.3145 1.06494 21.4579 1.83496 21.9354 3.01197L23.3606 6.52494C22.3468 5.27552 20.3711 5.53729 19.7176 7.00761L16.4654 14.3249Z" fill="url(#paint4_linear_855_4511)"/>
</g>
<path d="M63.4716 20.9473V13.0287C63.4716 8.67631 65.9988 6.7107 69.2842 6.7107C71.3621 6.7107 73.075 7.58119 74.0859 9.20983C75.0687 7.58119 76.7815 6.7107 78.8875 6.7107C82.1729 6.7107 84.7001 8.67631 84.7001 13.0287V20.9473H81.3586V13.0287C81.3586 10.7542 80.1792 9.82758 78.5506 9.82758C76.95 9.82758 75.7707 10.7823 75.7707 13.0287V20.9473H72.4291V13.0287C72.4291 10.7823 71.2217 9.82758 69.6211 9.82758C67.9925 9.82758 66.8131 10.7542 66.8131 13.0287V20.9473H63.4716ZM94.346 21.3123C89.9655 21.3123 86.8767 18.2235 86.8767 14.0115C86.8767 9.79951 89.9655 6.7107 94.346 6.7107C98.7265 6.7107 101.759 9.79951 101.759 14.0115V15.1909H90.3867C90.836 17.2126 92.3804 18.2797 94.346 18.2797C95.8343 18.2797 96.9294 17.8585 97.6314 16.9599H101.198C100.159 19.5994 97.6314 21.3123 94.346 21.3123ZM90.471 12.5233H98.2211C97.6875 10.67 96.1712 9.74335 94.346 9.74335C92.4647 9.74335 91.0045 10.6981 90.471 12.5233ZM110.882 21.3123C106.474 21.3123 103.385 18.2797 103.385 13.8711C103.385 9.12558 106.923 6.7107 110.292 6.7107C112.286 6.7107 113.943 7.5531 114.926 9.09751V1.01046H118.267V13.8992C118.267 18.392 115.234 21.3123 110.882 21.3123ZM110.854 18.1954C113.297 18.1954 114.926 16.4545 114.926 14.0115C114.926 11.5685 113.297 9.82758 110.854 9.82758C108.411 9.82758 106.754 11.5685 106.754 14.0115C106.754 16.4545 108.411 18.1954 110.854 18.1954ZM126.337 21.3123C122.799 21.3123 120.581 19.4309 120.497 16.8476H123.866C123.894 17.7742 124.709 18.392 126.337 18.392C128.05 18.392 128.78 17.69 128.78 16.8476C128.78 15.7805 127.545 15.6401 126.056 15.4436C123.922 15.1628 120.777 14.7977 120.777 11.4001C120.777 8.56399 122.94 6.7107 126.281 6.7107C129.679 6.7107 131.757 8.62015 131.841 11.0631H128.528C128.443 10.2207 127.657 9.63102 126.337 9.63102C124.877 9.63102 124.147 10.333 124.147 11.1473C124.147 12.2144 125.411 12.3829 126.899 12.5794C128.752 12.8321 132.15 13.1972 132.15 16.651C132.15 19.459 129.875 21.3123 126.337 21.3123ZM140.029 21.3123C136.66 21.3123 134.357 19.459 134.357 15.6121V2.16174H137.699V7.07575H144.859V10.1084H137.699V15.6121C137.699 17.4653 138.653 18.1954 140.029 18.1954C141.405 18.1954 142.36 17.4934 142.36 15.6121V15.247H145.701V15.6121C145.701 19.459 143.399 21.3123 140.029 21.3123ZM154.756 21.3123C150.376 21.3123 147.287 18.2235 147.287 14.0115C147.287 9.79951 150.376 6.7107 154.756 6.7107C159.137 6.7107 162.226 9.79951 162.226 14.0115C162.226 18.2235 159.137 21.3123 154.756 21.3123ZM154.756 18.1954C157.199 18.1954 158.828 16.4545 158.828 14.0115C158.828 11.5685 157.199 9.82758 154.756 9.82758C152.313 9.82758 150.657 11.5685 150.657 14.0115C150.657 16.4545 152.313 18.1954 154.756 18.1954ZM164.889 20.9473V1.01046H168.23V13.141L173.734 7.07575H178.002L171.488 13.8711L178.255 20.9473H173.903L168.23 14.6854V20.9473H164.889Z" fill="#211E31"/>
<defs>
<linearGradient id="paint0_linear_855_4511" x1="36.7463" y1="-0.105059" x2="36.7463" y2="18.6149" gradientUnits="userSpaceOnUse">
<stop stop-color="#6C9CFF"/>
<stop offset="1" stop-color="#473CFA"/>
</linearGradient>
<linearGradient id="paint1_linear_855_4511" x1="27.1889" y1="11.3661" x2="27.1889" y2="30.7513" gradientUnits="userSpaceOnUse">
<stop stop-color="#6C9CFF"/>
<stop offset="1" stop-color="#473CFA"/>
</linearGradient>
<linearGradient id="paint2_linear_855_4511" x1="36.7463" y1="-0.105059" x2="36.7463" y2="18.6149" gradientUnits="userSpaceOnUse">
<stop stop-color="#473CFA"/>
<stop offset="1" stop-color="#473CFA"/>
</linearGradient>
<linearGradient id="paint3_linear_855_4511" x1="36.7463" y1="-0.105059" x2="36.7463" y2="18.6149" gradientUnits="userSpaceOnUse">
<stop stop-color="#4D4CFB"/>
<stop offset="1" stop-color="#4D4AFB"/>
</linearGradient>
<linearGradient id="paint4_linear_855_4511" x1="16.4655" y1="0.674941" x2="16.4655" y2="16.6649" gradientUnits="userSpaceOnUse">
<stop stop-color="#A1F2FF"/>
<stop offset="1" stop-color="#65E6F9"/>
</linearGradient>
<clipPath id="clip0_855_4511">
<rect width="51.48" height="27.3" fill="white" transform="translate(0.0859375 0.285156)"/>
</clipPath>
</defs>
</svg>
