<svg width="20" height="20" viewBox="0 0 20 20" fill="none" xmlns="http://www.w3.org/2000/svg">
<g clip-path="url(#clip0_1943_9082)">
<path d="M-0.75 9H4.25V7.75L-0.75 7.75V9Z" fill="#211E31"/>
<path d="M0.5 14H5.5V12.75H0.5V14Z" fill="#211E31"/>
<path d="M1.75 11.5H6.75V10.25H1.75V11.5Z" fill="#211E31"/>
<path d="M3 15.8667V16C3 17.1046 3.89543 18 5 18H17C18.1046 18 19 17.1046 19 16V4C19 2.89543 18.1046 2 17 2H5C3.89543 2 3 2.89543 3 4V6.26667" stroke="#211E31" stroke-width="1.25" stroke-linejoin="round"/>
<path d="M11.6325 10H9.81624C8.7265 10 8 9.42246 8 8.07487L8 7.92513C8 6.57754 8.7265 6 9.81624 6L13 6C14.4 6 15 6.8 15 8M11.3675 10H13.1838C14.2735 10 15 10.5775 15 11.9251V12.0749C15 13.4225 14.2735 14 13.1838 14H10C8.6 14 8 13.2 8 12M11.5 5V15" stroke="#211E31" stroke-width="1.25" stroke-linecap="square" stroke-linejoin="round"/>
</g>
<defs>
<clipPath id="clip0_1943_9082">
<rect width="20" height="20" fill="white"/>
</clipPath>
</defs>
</svg>
