<svg width="16" height="16" viewBox="0 0 16 16" fill="none" xmlns="http://www.w3.org/2000/svg">
<path d="M8.808 10.364C8.11066 10.7816 7.3128 11.0014 6.5 11C5.90893 11.0008 5.32353 10.8848 4.77745 10.6586C4.23138 10.4324 3.73538 10.1005 3.318 9.682C2.89949 9.2646 2.5676 8.7686 2.34141 8.22253C2.11522 7.67646 1.9992 7.09106 2 6.5C2 5.25734 2.50334 4.13267 3.318 3.318C3.73538 2.89949 4.23138 2.5676 4.77745 2.34141C5.32353 2.11522 5.90893 1.9992 6.5 2C7.74266 2 8.86733 2.50334 9.682 3.318C10.1005 3.73538 10.4324 4.23138 10.6586 4.77745C10.8848 5.32353 11.0008 5.90893 11 6.5C11.0011 7.29826 10.7892 8.0824 10.386 8.77133C10.0413 9.35933 10.0967 10.0967 10.5787 10.5787L13.1473 13.1473" stroke="white" stroke-width="1.5"/>
</svg>
