<svg width="19" height="19" viewBox="0 0 19 19" fill="none" xmlns="http://www.w3.org/2000/svg">
<path d="M11.212 13.546C10.166 14.1724 8.9692 14.5021 7.75 14.5C6.8634 14.5012 5.9853 14.3272 5.16618 13.9879C4.34707 13.6486 3.60308 13.1508 2.97701 12.523C2.34924 11.8969 1.8514 11.1529 1.51212 10.3338C1.17284 9.5147 0.998796 8.6366 1.00001 7.75C1.00001 5.88601 1.75501 4.19901 2.97701 2.97701C3.60308 2.34924 4.34707 1.8514 5.16618 1.51212C5.9853 1.17284 6.8634 0.998796 7.75 1.00001C9.614 1.00001 11.301 1.75501 12.523 2.97701C13.1508 3.60308 13.6486 4.34707 13.9879 5.16618C14.3272 5.9853 14.5012 6.8634 14.5 7.75C14.5017 8.9474 14.1838 10.1236 13.579 11.157C13.062 12.039 13.145 13.145 13.868 13.868L17.721 17.721" stroke="#211E31" stroke-width="1.5"/>
</svg>
