<svg width="25" height="24" viewBox="0 0 25 24" fill="none" xmlns="http://www.w3.org/2000/svg">
<path d="M7.71669 10.9068C7.47455 10.4711 7.09459 10.1282 6.63646 9.93178C6.17832 9.7354 5.66794 9.69671 5.18544 9.82177C4.70293 9.94684 4.27562 10.2286 3.97057 10.6228C3.66552 11.017 3.5 11.5013 3.5 11.9998C3.5 12.4982 3.66552 12.9826 3.97057 13.3768C4.27562 13.771 4.70293 14.0527 5.18544 14.1778C5.66794 14.3029 6.17832 14.2642 6.63646 14.0678C7.09459 13.8714 7.47455 13.5285 7.71669 13.0928M7.71669 10.9068C7.89669 11.2308 7.99969 11.6028 7.99969 11.9998C7.99969 12.3968 7.89669 12.7698 7.71669 13.0928M7.71669 10.9068L17.2827 5.59279M7.71669 13.0928L17.2827 18.4068M17.2827 5.59279C17.4229 5.85693 17.6144 6.09046 17.846 6.27972C18.0776 6.46899 18.3445 6.61019 18.6313 6.69507C18.9181 6.77995 19.2189 6.80682 19.5161 6.77409C19.8134 6.74136 20.1012 6.6497 20.3626 6.50446C20.624 6.35922 20.8539 6.16332 21.0387 5.92821C21.2236 5.6931 21.3597 5.4235 21.4391 5.13518C21.5185 4.84685 21.5397 4.54559 21.5013 4.24899C21.463 3.95239 21.3659 3.66642 21.2157 3.40779C20.9198 2.89814 20.4357 2.52493 19.8675 2.36841C19.2993 2.21188 18.6924 2.28454 18.1772 2.57075C17.662 2.85696 17.2797 3.33388 17.1124 3.89899C16.9452 4.4641 17.0063 5.07228 17.2827 5.59279ZM17.2827 18.4068C17.1392 18.6652 17.0479 18.9493 17.0142 19.2429C16.9804 19.5366 17.0049 19.834 17.0861 20.1182C17.1673 20.4024 17.3037 20.6678 17.4875 20.8993C17.6712 21.1307 17.8988 21.3238 18.1572 21.4673C18.4156 21.6108 18.6997 21.7021 18.9933 21.7358C19.287 21.7695 19.5844 21.7451 19.8685 21.6639C20.1527 21.5827 20.4182 21.4463 20.6496 21.2625C20.8811 21.0787 21.0742 20.8512 21.2177 20.5928C21.5076 20.071 21.5783 19.4554 21.4143 18.8814C21.2503 18.3075 20.865 17.8222 20.3432 17.5323C19.8214 17.2424 19.2058 17.1717 18.6318 17.3357C18.0579 17.4997 17.5726 17.885 17.2827 18.4068Z" stroke="#211E31" stroke-width="1.5" stroke-linecap="round" stroke-linejoin="round"/>
</svg>
