<svg width="25" height="25" viewBox="0 0 25 25" fill="none" xmlns="http://www.w3.org/2000/svg">
<g clip-path="url(#clip0_1199_1271)">
<path d="M3.5 12.14C3.5 8.06705 3.5 6.0306 4.7653 4.7653C6.0306 3.5 8.06705 3.5 12.14 3.5H12.86C16.933 3.5 18.9694 3.5 20.2347 4.7653C21.5 6.0306 21.5 8.06705 21.5 12.14V12.86C21.5 16.933 21.5 18.9694 20.2347 20.2347C18.9694 21.5 16.933 21.5 12.86 21.5H12.14C8.06705 21.5 6.0306 21.5 4.7653 20.2347C3.5 18.9694 3.5 16.933 3.5 12.86V12.14Z" fill="#473CFA"/>
<path d="M13.0771 16.4676C8.97457 16.4676 6.63461 13.6551 6.53711 8.9751H8.59211C8.65961 12.4101 10.1746 13.8651 11.3746 14.1651V8.9751H13.3096V11.9376C14.4946 11.8101 15.7395 10.4601 16.1595 8.9751H18.0945C17.772 10.8051 16.422 12.1551 15.462 12.7101C16.422 13.1601 17.9596 14.3376 18.5446 16.4676H16.4145C15.957 15.0426 14.8171 13.9401 13.3096 13.7901V16.4676H13.0771Z" fill="white"/>
</g>
<defs>
<clipPath id="clip0_1199_1271">
<rect width="18" height="18" fill="white" transform="translate(3.5 3.5)"/>
</clipPath>
</defs>
</svg>
