<svg width="24" height="25" viewBox="0 0 24 25" fill="none" xmlns="http://www.w3.org/2000/svg">
<path d="M20.1818 5.5H3.63636C3.28437 5.5 3 5.78437 3 6.13636V18.8636C3 19.2156 3.28437 19.5 3.63636 19.5H20.1818C20.5338 19.5 20.8182 19.2156 20.8182 18.8636V6.13636C20.8182 5.78437 20.5338 5.5 20.1818 5.5ZM19.3864 7.70341V18.0682H4.43182V7.70341L3.88295 7.27585L4.66449 6.27159L5.51562 6.93381H18.3045L19.1557 6.27159L19.9372 7.27585L19.3864 7.70341ZM18.3045 6.93182L11.9091 11.9034L5.51364 6.93182L4.6625 6.2696L3.88097 7.27386L4.42983 7.70142L11.223 12.9832C11.4184 13.135 11.6587 13.2174 11.9061 13.2174C12.1535 13.2174 12.3938 13.135 12.5892 12.9832L19.3864 7.70341L19.9352 7.27585L19.1537 6.27159L18.3045 6.93182Z" fill="#A1A9C3"/>
</svg>
