<svg width="25" height="25" viewBox="0 0 25 25" fill="none" xmlns="http://www.w3.org/2000/svg">
<path fill-rule="evenodd" clip-rule="evenodd" d="M13.1895 10.8682V14.3302H17.8425C17.7495 14.8726 17.549 15.391 17.2528 15.8549C16.9565 16.3188 16.5705 16.7187 16.1175 17.0312V19.2772H18.9115C20.5465 17.7192 21.4895 15.4242 21.4895 12.6992C21.4895 12.0642 21.4345 11.4542 21.3325 10.8682H13.1895Z" fill="#473CFA"/>
<path fill-rule="evenodd" clip-rule="evenodd" d="M5.46289 14.1958V16.5148C6.88589 19.4398 9.80989 21.4448 13.1899 21.4448C15.5239 21.4448 17.4809 20.6448 18.9119 19.2768L16.1179 17.0308C15.3429 17.5678 14.3529 17.8858 13.1899 17.8858C10.9379 17.8858 9.03189 16.3108 8.35189 14.1958H5.46289Z" fill="#34A853"/>
<path fill-rule="evenodd" clip-rule="evenodd" d="M5.46297 8.4761C4.85619 9.72926 4.54163 11.1038 4.54297 12.4961C4.54297 13.9401 4.87797 15.3061 5.46297 16.5151L8.35197 14.1951C8.17379 13.646 8.08236 13.0724 8.08097 12.4951C8.08097 11.9051 8.17897 11.3321 8.35097 10.7951V8.4751H5.46397L5.46297 8.4761Z" fill="#F9BB00"/>
<path fill-rule="evenodd" clip-rule="evenodd" d="M5.46289 8.47592L8.35189 10.7949C9.03189 8.67892 10.9379 7.10492 13.1899 7.10492C14.4599 7.10492 15.5989 7.55592 16.4949 8.44292L18.9749 5.87592C17.4779 4.43192 15.5199 3.54492 13.1899 3.54492C9.80989 3.54492 6.88589 5.55192 5.46289 8.47592Z" fill="#E74133"/>
</svg>
