<svg width="24" height="25" viewBox="0 0 24 25" fill="none" xmlns="http://www.w3.org/2000/svg">
<path d="M11.0401 16.4601C9.48014 16.3401 8.04014 15.9801 6.84014 15.0201C6.72014 14.9001 6.48014 14.7801 6.36014 14.6601C5.88014 14.1801 5.76014 13.5801 6.24014 13.1001C6.60014 12.6201 7.20014 12.5001 7.80014 12.7401C7.92014 12.7401 8.04014 12.8601 8.16014 12.9801C10.4401 14.4201 13.4401 14.5401 15.7201 13.1001L16.4401 12.7401C16.9201 12.6201 17.5201 12.7401 17.7601 13.2201C18.1201 13.7001 18.1201 14.1801 17.6401 14.6601C17.0401 15.2601 16.3201 15.7401 15.4801 15.9801C14.6401 16.2201 13.8001 16.4601 12.9601 16.4601L13.2001 16.7001C14.4001 17.7801 15.4801 18.8601 16.6801 20.0601C17.0401 20.4201 17.1601 20.9001 16.9201 21.3801C16.8001 21.8601 16.2001 22.1001 15.7201 22.1001C15.3601 22.1001 15.1201 21.9801 14.8801 21.7401C14.0401 20.9001 13.0801 20.0601 12.2401 19.2201C12.0001 18.9801 11.8801 18.9801 11.6401 19.2201C10.8001 20.0601 9.96014 20.9001 9.00014 21.7401C8.64014 22.1001 8.16014 22.2201 7.68014 21.9801C7.20014 21.7401 6.84014 21.2601 6.84014 20.7801C6.84014 20.4201 7.08014 20.1801 7.32014 19.9401C8.52014 18.8601 9.60014 17.7801 10.8001 16.7001C10.8001 16.5801 10.9201 16.5801 11.0401 16.4601Z" fill="#F7931E"/>
<path d="M12 12.6199C9.23996 12.6199 6.95996 10.4599 6.95996 7.6999C6.95996 5.0599 9.23996 2.8999 12 2.8999C14.76 2.8999 17.04 5.0599 17.04 7.8199C17.04 10.4599 14.76 12.6199 12 12.6199ZM14.52 7.6999C14.52 6.3799 13.44 5.2999 12 5.2999C10.56 5.2999 9.47996 6.3799 9.47996 7.6999C9.47996 9.0199 10.56 10.0999 12 10.0999C13.44 10.0999 14.52 9.0199 14.52 7.6999Z" fill="#F7931E"/>
</svg>
