<svg width="24" height="25" viewBox="0 0 24 25" fill="none" xmlns="http://www.w3.org/2000/svg">
<g clip-path="url(#clip0_1199_5562)">
<path fill-rule="evenodd" clip-rule="evenodd" d="M12 3.5C7.029 3.5 3 7.52975 3 12.5C3 17.4703 7.029 21.5 12 21.5C16.9703 21.5 21 17.4703 21 12.5C21 7.52975 16.9703 3.5 12 3.5Z" fill="#473CFA"/>
<path d="M13.3659 21.3963V14.4981H15.6982L16.0449 11.7567H13.3659V10.0105C13.3659 9.21942 13.5835 8.6778 14.7045 8.6778H16.125V6.23364C15.4339 6.15863 14.7392 6.1224 14.0441 6.12514C11.9825 6.12514 10.5671 7.39976 10.5671 9.73969V11.7516H8.25V14.493H10.5722V21.3811C11.0422 21.4593 11.5246 21.5 12.0163 21.5C12.4751 21.5 12.9258 21.4646 13.3659 21.3963Z" fill="white"/>
</g>
<defs>
<clipPath id="clip0_1199_5562">
<rect width="18" height="18" fill="white" transform="translate(3 3.5)"/>
</clipPath>
</defs>
</svg>
