<svg width="25" height="24" viewBox="0 0 25 24" fill="none" xmlns="http://www.w3.org/2000/svg">
<path d="M20.8451 16.2469C19.849 15.6703 18.6349 15.825 17.8169 16.5469L16.5748 15.8273V12.2719C16.5748 11.9039 16.3779 11.5617 16.0591 11.3789L12.8716 9.54375V7.97109C13.9076 7.61953 14.6529 6.63984 14.6529 5.48438C14.6529 4.03359 13.4787 2.85938 12.0279 2.85938C10.5771 2.85938 9.40288 4.03359 9.40288 5.48438C9.40288 6.63984 10.1482 7.61953 11.1841 7.97109V9.54375L7.99663 11.3789C7.67788 11.5617 7.48101 11.9039 7.48101 12.2719V15.825L6.23882 16.5445C5.42085 15.8227 4.20444 15.668 3.21069 16.2445C1.95679 16.9711 1.53022 18.5742 2.24976 19.8281C2.97163 21.082 4.56772 21.5133 5.81694 20.7891C6.81304 20.2125 7.28648 19.0781 7.07319 18.0047L8.2146 17.3414L11.5099 19.2398C11.6693 19.3313 11.8474 19.3781 12.0255 19.3781C12.2037 19.3781 12.3818 19.3313 12.5412 19.2398L15.8341 17.3438L16.9755 18.007C16.7623 19.0781 17.238 20.2148 18.2318 20.7914C19.481 21.5156 21.0794 21.0867 21.799 19.8305C22.5209 18.5742 22.0943 16.9711 20.8451 16.2469ZM5.07163 19.4906C4.94433 19.5644 4.8037 19.6122 4.65784 19.6313C4.51198 19.6505 4.36378 19.6406 4.22175 19.6023C4.07972 19.564 3.94667 19.4979 3.83027 19.408C3.71387 19.318 3.61641 19.2059 3.54351 19.0781C3.23413 18.5414 3.41694 17.8523 3.95366 17.543C4.08096 17.4692 4.22159 17.4214 4.36745 17.4022C4.51331 17.3831 4.66152 17.3929 4.80355 17.4313C4.94558 17.4696 5.07862 17.5357 5.19502 17.6256C5.31142 17.7156 5.40888 17.8277 5.48179 17.9555C5.79116 18.4922 5.60835 19.1812 5.07163 19.4906ZM10.9005 5.48438C10.9065 5.18998 11.0277 4.90968 11.238 4.7036C11.4484 4.49753 11.7311 4.38211 12.0255 4.38211C12.32 4.38211 12.6027 4.49753 12.813 4.7036C13.0234 4.90968 13.1445 5.18998 13.1505 5.48438C13.1445 5.77877 13.0234 6.05907 12.813 6.26515C12.6027 6.47122 12.32 6.58664 12.0255 6.58664C11.7311 6.58664 11.4484 6.47122 11.238 6.26515C11.0277 6.05907 10.9065 5.77877 10.9005 5.48438ZM14.8849 15.9422L12.0255 17.5898L9.16616 15.9422V12.6516L12.0255 11.0039L14.8849 12.6516V15.9422ZM20.5076 19.0805C20.1982 19.6172 19.5138 19.8023 18.9794 19.493C18.4451 19.1836 18.2599 18.4945 18.5693 17.9578C18.8787 17.4211 19.563 17.2359 20.0974 17.5453C20.6341 17.8547 20.8169 18.5414 20.5076 19.0805Z" fill="#211E31"/>
</svg>
