<svg width="25" height="24" viewBox="0 0 25 24" fill="none" xmlns="http://www.w3.org/2000/svg">
<path d="M21.099 20.3812L19.8568 13.2188H20.2764C20.6139 13.2188 20.8857 12.9469 20.8857 12.6094V8.10938C20.8857 7.77187 20.6139 7.5 20.2764 7.5H14.5107V3.23438C14.5107 2.89688 14.2389 2.625 13.9014 2.625H10.1514C9.81387 2.625 9.54199 2.89688 9.54199 3.23438V7.5H3.77637C3.43887 7.5 3.16699 7.77187 3.16699 8.10938V12.6094C3.16699 12.9469 3.43887 13.2188 3.77637 13.2188H4.1959L2.95371 20.3812C2.94668 20.4164 2.94434 20.4516 2.94434 20.4844C2.94434 20.8219 3.21621 21.0938 3.55371 21.0938H20.499C20.5342 21.0938 20.5693 21.0914 20.6021 21.0844C20.935 21.0281 21.1576 20.7117 21.099 20.3812ZM4.80762 9.14062H11.1826V4.26562H12.8701V9.14062H19.2451V11.5781H4.80762V9.14062ZM15.7764 19.4531V15.7969C15.7764 15.6938 15.692 15.6094 15.5889 15.6094H14.4639C14.3607 15.6094 14.2764 15.6938 14.2764 15.7969V19.4531H9.77637V15.7969C9.77637 15.6938 9.69199 15.6094 9.58887 15.6094H8.46387C8.36074 15.6094 8.27637 15.6938 8.27637 15.7969V19.4531H4.77949L5.83652 13.3594H18.2139L19.2709 19.4531H15.7764Z" fill="#211E31"/>
</svg>
