<svg width="24" height="24" viewBox="0 0 24 24" fill="none" xmlns="http://www.w3.org/2000/svg">
<path d="M11.8889 5.77778C11.6531 5.77778 11.427 5.68413 11.2603 5.51743C11.0937 5.35073 11 5.12464 11 4.88889C11 4.65314 11.0937 4.42705 11.2603 4.26035C11.427 4.09365 11.6531 4 11.8889 4C12.1246 4 12.3507 4.09365 12.5174 4.26035C12.6841 4.42705 12.7778 4.65314 12.7778 4.88889C12.7778 5.12464 12.6841 5.35073 12.5174 5.51743C12.3507 5.68413 12.1246 5.77778 11.8889 5.77778ZM11.8889 12.8889C11.6531 12.8889 11.427 12.7952 11.2603 12.6285C11.0937 12.4618 11 12.2357 11 12C11 11.7643 11.0937 11.5382 11.2603 11.3715C11.427 11.2048 11.6531 11.1111 11.8889 11.1111C12.1246 11.1111 12.3507 11.2048 12.5174 11.3715C12.6841 11.5382 12.7778 11.7643 12.7778 12C12.7778 12.2357 12.6841 12.4618 12.5174 12.6285C12.3507 12.7952 12.1246 12.8889 11.8889 12.8889ZM11.8889 20C11.6531 20 11.427 19.9064 11.2603 19.7397C11.0937 19.573 11 19.3469 11 19.1111C11 18.8754 11.0937 18.6493 11.2603 18.4826C11.427 18.3159 11.6531 18.2222 11.8889 18.2222C12.1246 18.2222 12.3507 18.3159 12.5174 18.4826C12.6841 18.6493 12.7778 18.8754 12.7778 19.1111C12.7778 19.3469 12.6841 19.573 12.5174 19.7397C12.3507 19.9064 12.1246 20 11.8889 20Z" fill="#211E31" stroke="#211E31" stroke-width="1.5" stroke-linecap="round" stroke-linejoin="round"/>
</svg>
